<svg xmlns="http://www.w3.org/2000/svg" xmlns:xlink="http://www.w3.org/1999/xlink" viewBox="0 0 162.93 64.08"><defs><style>.cls-1{fill:url(#Gradiente_sem_nome_7);}.cls-2{fill:url(#Gradiente_sem_nome_7-2);}.cls-3{fill:url(#Gradiente_sem_nome_7-3);}.cls-4{fill:url(#Gradiente_sem_nome_7-4);}.cls-5{fill:url(#Gradiente_sem_nome_7-5);}.cls-6{fill:#fff;}</style><linearGradient id="Gradiente_sem_nome_7" x1="146.73" y1="23.96" x2="146.73" y2="64.08" gradientUnits="userSpaceOnUse"><stop offset="0" stop-color="#ffc300"/><stop offset="1" stop-color="#a96d00"/></linearGradient><linearGradient id="Gradiente_sem_nome_7-2" x1="108.96" y1="24.6" x2="108.96" y2="64.08" xlink:href="#Gradiente_sem_nome_7"/><linearGradient id="Gradiente_sem_nome_7-3" x1="2.74" y1="0" x2="2.74" y2="62.88" xlink:href="#Gradiente_sem_nome_7"/><linearGradient id="Gradiente_sem_nome_7-4" x1="70.34" y1="24.37" x2="70.34" y2="63.35" xlink:href="#Gradiente_sem_nome_7"/><linearGradient id="Gradiente_sem_nome_7-5" x1="33.4" y1="24.37" x2="33.4" y2="63.35" xlink:href="#Gradiente_sem_nome_7"/></defs><g id="Camada_2" data-name="Camada 2"><g id="Camada_1-2" data-name="Camada 1"><path class="cls-1" d="M146,64.08c-2.5-.51-5-.84-7.47-1.57a19.67,19.67,0,0,1-7.29-4.21,1.52,1.52,0,0,1-.34-2.2q1.89-2.84,3.92-5.57a1.52,1.52,0,0,1,2.32-.24,21.54,21.54,0,0,0,9.28,3.59,13.26,13.26,0,0,0,4.24-.37,2.1,2.1,0,0,0,1.71-1.94c.09-1.06-.56-1.61-1.53-1.81-2-.43-4-.88-6.07-1.22a23.41,23.41,0,0,1-9.15-3.29,9.23,9.23,0,0,1-4-5.3c-2.12-7.87,2.32-13.91,9.31-15.38a23.92,23.92,0,0,1,15.52,1.58,41.21,41.21,0,0,1,4.48,2.73c.82.53,1,1.14.34,2.06-1.32,1.75-2.5,3.6-3.73,5.41-.59.87-1.16,1.22-2.26.59-3.18-1.82-6.5-3.29-10.29-3a6.28,6.28,0,0,0-2.48.71c-1.19.67-1.11,1.82.08,2.48a21.15,21.15,0,0,0,6.93,2.08c4.11.66,8,2,10.87,5.22,4.51,5,3.49,15.67-4.93,18.39-1.8.58-3.72.83-5.58,1.24Z"/><path class="cls-2" d="M107.36,64.08a50.64,50.64,0,0,1-6.52-1.82c-5.86-2.48-8.54-7.34-8.75-13.4-.28-7.56-.1-15.13-.12-22.7,0-1.07.47-1.59,1.61-1.56,2.36,0,4.71,0,7.07,0,1.53,0,1.86.33,1.86,1.93,0,6.85,0,13.7,0,20.55A7.1,7.1,0,0,0,105,52.91a6,6,0,0,0,6.19,1,6.06,6.06,0,0,0,4.09-4.75,10.58,10.58,0,0,0,.19-2.25c0-6.89,0-13.79,0-20.68,0-1.53.08-1.6,1.64-1.6,2.44,0,4.87,0,7.31,0,1.07,0,1.59.49,1.58,1.48,0,7.77.14,15.54-.21,23.3s-6.12,13.52-13.89,14.46c-.39,0-.77.16-1.16.24Z"/><path class="cls-3" d="M0,0H5.48V62.88H0Z"/><path class="cls-4" d="M55.59,43.79V26.21c0-1.5.33-1.83,1.82-1.84H83.29c1.46,0,1.78.32,1.78,1.73,0,2.19,0,4.39,0,6.58,0,1.15-.43,1.52-1.56,1.51-5.11,0-10.23,0-15.34,0-1.82,0-2,.24-2,2.08,0,3-.15,2.71,2.72,2.71H81.09c1.53,0,2,.54,2.06,2.09,0,2,0,4,0,6,0,1.36-.59,2-2,2H67.78c-1.55,0-1.63.09-1.65,1.62,0,2.92,0,2.92,2.9,2.92,4.83,0,9.67,0,14.5,0,1.14,0,1.58.37,1.55,1.52,0,2.19,0,4.38,0,6.57,0,1.36-.35,1.73-1.67,1.73h-26c-1.44,0-1.81-.39-1.81-1.86Z"/><path class="cls-5" d="M34.13,34.41H25c-2,0-4.07,0-6.1,0-1.47,0-1.85-.38-1.86-1.85,0-2,0-4.06,0-6.09,0-1.78.31-2.1,2.08-2.1h29a1.35,1.35,0,0,1,1.55,1.53c0,2,.11,4-.06,6a4.69,4.69,0,0,1-1.12,2.53c-5,5.77-10.1,11.48-15.17,17.21a3.54,3.54,0,0,0-.54.63,1.51,1.51,0,0,0-.25,1c.08.2.57.33.88.33,4.67,0,9.35,0,14,0,2,0,2.26.24,2.27,2.26s0,3.74,0,5.61c0,1.55-.4,1.93-1.9,1.93H19.07c-1.61,0-1.92-.3-1.92-1.85a41.84,41.84,0,0,1,.05-5,5.73,5.73,0,0,1,1.16-3c5-5.69,10.09-11.29,15.12-16.94a9.27,9.27,0,0,0,1-1.83Z"/><path class="cls-6" d="M64.32,3.92h1.77l.14,1.46a5.33,5.33,0,0,1,4.23-1.59,5.14,5.14,0,0,1,4,2.08,6,6,0,0,1-.38,7.4c-1.94,2.08-4.7,2.18-7.81.18v5.34H64.32Zm5.43,9.26a3.61,3.61,0,0,0,3.8-3.73,3.68,3.68,0,1,0-7.34-.15A3.63,3.63,0,0,0,69.75,13.18Z"/><path class="cls-6" d="M16.58,11.65a8,8,0,0,0,5.57,1.51,2.81,2.81,0,0,0,1.46-.39A3.13,3.13,0,0,0,24.77,11a2.25,2.25,0,0,0-1.09-1.64,15.49,15.49,0,0,0-2.93-1,22.06,22.06,0,0,1-2.38-.78,3.29,3.29,0,0,1-2.17-3A3.67,3.67,0,0,1,18,1.07a8.09,8.09,0,0,1,8.22.51l-.63,1.48a7.45,7.45,0,0,0-5.47-.93,2.18,2.18,0,0,0-1.9,2c-.07,1.19.77,1.7,1.7,2,1.4.47,2.84.8,4.24,1.26a3.44,3.44,0,0,1,2.7,3.24,3.66,3.66,0,0,1-2.53,3.79,9,9,0,0,1-7.71-.68C15.35,13.09,16.26,12.42,16.58,11.65Z"/><path class="cls-6" d="M39.18,10H30.57a3,3,0,0,0,2,2.82,4.47,4.47,0,0,0,5-.87l1,1.11c-1.06,2-5.09,2.33-7.16,1.21A5.63,5.63,0,0,1,29,7.06a5.4,5.4,0,0,1,6.49-3.12A5.23,5.23,0,0,1,39.18,10ZM37.31,8.55a3.12,3.12,0,0,0-3.37-3.08,3,3,0,0,0-3.28,3.08Z"/><path class="cls-6" d="M60.54,14.77H58.75l-.08-1.37a5.25,5.25,0,0,1-4.31,1.5c-2.23-.25-3.72-1.46-3.89-3.67-.19-2.4,0-4.83,0-7.31H52.3V6.5c0,1.23,0,2.47,0,3.7.12,1.93,1.06,2.9,2.75,3a3,3,0,0,0,3.43-2.76,32.35,32.35,0,0,0,.12-3.69c0-.9,0-1.81,0-2.78h1.91Z"/><path class="cls-6" d="M40.59,3.89l1.64-.08.15-2.29h1.86V3.81h3.08V5.47h-3c0,2.24,0,4.34,0,6.43,0,1.11.9,1.41,1.88,1.33a9.13,9.13,0,0,0,1.32-.3l.53,1.26a4,4,0,0,1-3.88.47,2.74,2.74,0,0,1-1.86-2.78c0-1.67,0-3.34,0-5V5.55l-1.72-.09Z"/></g></g></svg>